<svg width="272" height="53" viewBox="0 0 272 53" fill="none" xmlns="http://www.w3.org/2000/svg">
<path d="M43.0625 24.8438C43.0609 23.0659 42.5827 21.321 41.6777 19.7909C40.7726 18.2607 39.4738 17.0011 37.9165 16.1435C39.0902 14.9192 39.7469 13.2897 39.75 11.5938H36.4375C36.4366 12.472 36.0873 13.314 35.4663 13.9351C34.8453 14.5561 34.0033 14.9054 33.125 14.9062C30.5221 14.9097 28.0242 15.9336 26.1678 17.7581C24.3114 19.5827 23.2443 22.0624 23.1958 24.6649C21.0723 22.502 19.8802 19.5935 19.875 16.5625C19.8706 15.0977 19.3805 13.6758 18.4813 12.5195C17.5822 11.3631 16.3248 10.5378 14.9062 10.1727V6.625H11.5938V10.1727C10.1752 10.5378 8.91784 11.3631 8.01868 12.5195C7.11952 13.6758 6.62936 15.0977 6.625 16.5625V24.8438H3.3125V26.5C3.3125 32.6497 5.75546 38.5475 10.104 42.896C14.4525 47.2445 20.3503 49.6875 26.5 49.6875C32.6497 49.6875 38.5475 47.2445 42.896 42.896C47.2445 38.5475 49.6875 32.6497 49.6875 26.5V24.8438H43.0625ZM33.125 18.2188C34.8814 18.2209 36.5652 18.9196 37.8072 20.1616C39.0491 21.4035 39.7478 23.0874 39.75 24.8438H26.5C26.5022 23.0874 27.2009 21.4035 28.4428 20.1616C29.6848 18.9196 31.3686 18.2209 33.125 18.2188ZM9.9375 16.5625C9.9375 15.684 10.2865 14.8414 10.9077 14.2202C11.5289 13.599 12.3715 13.25 13.25 13.25C14.1285 13.25 14.9711 13.599 15.5923 14.2202C16.2135 14.8414 16.5625 15.684 16.5625 16.5625C16.5691 19.5133 17.4523 22.3957 19.0999 24.8438H9.9375V16.5625ZM26.5 46.375C21.5175 46.3684 16.7187 44.4933 13.0517 41.12C9.38466 37.7468 7.11623 33.1209 6.69456 28.1562H46.3071C45.8854 33.1212 43.6167 37.7473 39.9494 41.1206C36.282 44.4939 31.4828 46.3688 26.5 46.375Z" fill="#802E00"/>
<path d="M67.932 39.072C65.748 39.072 64.656 38.832 64.656 38.352V15.024C64.656 14.208 65.028 13.8 65.772 13.8H72.108C75.66 13.8 78.216 14.532 79.776 15.996C81.36 17.46 82.152 19.584 82.152 22.368C82.152 24.672 81.408 26.784 79.92 28.704C79.176 29.664 78.084 30.432 76.644 31.008C75.204 31.584 73.524 31.872 71.604 31.872V38.316C71.604 38.604 71.148 38.808 70.236 38.928C69.348 39.024 68.58 39.072 67.932 39.072ZM71.604 20.064V25.752H72.072C72.912 25.752 73.62 25.488 74.196 24.96C74.772 24.432 75.06 23.688 75.06 22.728C75.06 21.768 74.856 21.084 74.448 20.676C74.064 20.268 73.368 20.064 72.36 20.064H71.604ZM96.0233 39.36C92.6633 39.36 89.9153 38.256 87.7793 36.048C85.6673 33.84 84.6113 30.624 84.6113 26.4C84.6113 22.152 85.6793 18.936 87.8153 16.752C89.9753 14.568 92.7473 13.476 96.1313 13.476C99.5393 13.476 102.287 14.556 104.375 16.716C106.463 18.852 107.507 22.104 107.507 26.472C107.507 30.816 106.439 34.056 104.303 36.192C102.167 38.304 99.4073 39.36 96.0233 39.36ZM96.0593 20.388C94.9073 20.388 93.9353 20.916 93.1433 21.972C92.3753 23.028 91.9913 24.516 91.9913 26.436C91.9913 28.332 92.3633 29.796 93.1073 30.828C93.8513 31.836 94.8233 32.34 96.0233 32.34C97.2473 32.34 98.2313 31.824 98.9753 30.792C99.7433 29.76 100.127 28.284 100.127 26.364C100.127 24.444 99.7313 22.968 98.9393 21.936C98.1713 20.904 97.2113 20.388 96.0593 20.388ZM121.234 38.424C121.234 38.904 120.046 39.144 117.67 39.144C115.294 39.144 114.106 38.904 114.106 38.424V20.352H109.786C109.378 20.352 109.09 19.8 108.922 18.696C108.85 18.168 108.814 17.628 108.814 17.076C108.814 16.524 108.85 15.984 108.922 15.456C109.09 14.352 109.378 13.8 109.786 13.8H125.446C125.854 13.8 126.142 14.352 126.31 15.456C126.382 15.984 126.418 16.524 126.418 17.076C126.418 17.628 126.382 18.168 126.31 18.696C126.142 19.8 125.854 20.352 125.446 20.352H121.234V38.424ZM128.108 36.876V14.484C128.108 13.98 129.32 13.728 131.744 13.728C134.192 13.728 135.416 13.98 135.416 14.484V32.124H140.96C141.392 32.124 141.692 32.688 141.86 33.816C141.932 34.368 141.968 34.932 141.968 35.508C141.968 36.084 141.932 36.672 141.86 37.272C141.668 38.424 141.356 39 140.924 39H129.836C129.308 39 128.888 38.784 128.576 38.352C128.264 37.92 128.108 37.428 128.108 36.876ZM155.885 14.52C155.885 14.04 157.181 13.8 159.773 13.8C162.389 13.8 163.697 14.04 163.697 14.52V31.044C163.697 33.492 162.821 35.496 161.069 37.056C159.317 38.592 156.893 39.36 153.797 39.36C150.725 39.36 148.217 38.568 146.273 36.984C144.353 35.376 143.393 33.216 143.393 30.504V14.556C143.393 14.076 144.689 13.836 147.281 13.836C149.897 13.836 151.205 14.076 151.205 14.556V30.792C151.205 31.272 151.457 31.656 151.961 31.944C152.489 32.232 153.041 32.376 153.617 32.376C154.193 32.376 154.709 32.244 155.165 31.98C155.645 31.716 155.885 31.32 155.885 30.792V14.52ZM177.014 13.476C178.766 13.476 180.302 13.728 181.622 14.232C182.966 14.712 183.638 15.372 183.638 16.212C183.638 17.052 183.314 18.096 182.666 19.344C182.042 20.568 181.514 21.18 181.082 21.18C180.962 21.18 180.818 21.12 180.65 21C180.506 20.856 180.146 20.712 179.57 20.568C179.018 20.4 178.538 20.316 178.13 20.316C176.738 20.316 175.61 20.808 174.746 21.792C173.906 22.776 173.486 24.288 173.486 26.328C173.486 28.344 173.918 29.844 174.782 30.828C175.67 31.812 176.786 32.304 178.13 32.304C178.682 32.304 179.294 32.232 179.966 32.088C180.662 31.92 181.154 31.692 181.442 31.404C181.49 31.356 181.586 31.332 181.73 31.332C181.874 31.332 182.138 31.608 182.522 32.16C182.93 32.688 183.302 33.396 183.638 34.284C183.974 35.148 184.142 35.82 184.142 36.3C184.142 37.236 183.422 37.98 181.982 38.532C180.542 39.084 178.838 39.36 176.87 39.36C173.702 39.36 171.098 38.244 169.058 36.012C167.018 33.78 165.998 30.636 165.998 26.58C165.998 22.5 167.042 19.296 169.13 16.968C171.242 14.64 173.87 13.476 177.014 13.476ZM194.098 38.496C194.098 38.856 192.97 39.036 190.714 39.036L188.698 38.928C187.498 38.832 186.898 38.664 186.898 38.424V14.268C186.898 13.86 188.098 13.656 190.498 13.656C192.898 13.656 194.098 13.86 194.098 14.268V23.484L198.49 14.268C198.658 13.932 199.618 13.764 201.37 13.764C204.562 13.764 206.242 14.04 206.41 14.592C206.41 14.64 206.398 14.688 206.374 14.736L200.11 26.04L207.382 36.084C207.382 36.132 207.154 36.336 206.698 36.696C205.594 37.656 204.298 38.412 202.81 38.964C202.354 39.132 201.898 39.216 201.442 39.216L200.578 39.144C199.81 38.952 199.21 38.46 198.778 37.668L194.674 29.82H194.098V38.496Z" fill="#802E00"/>
<mask id="path-3-outside-1_61_1070" maskUnits="userSpaceOnUse" x="213" y="11" width="61" height="31" fill="black">
<rect fill="white" x="213" y="11" width="61" height="31"/>
<path d="M218.932 39.072C216.748 39.072 215.656 38.832 215.656 38.352V15.024C215.656 14.208 216.028 13.8 216.772 13.8H223.108C226.66 13.8 229.216 14.532 230.776 15.996C232.36 17.46 233.152 19.584 233.152 22.368C233.152 24.672 232.408 26.784 230.92 28.704C230.176 29.664 229.084 30.432 227.644 31.008C226.204 31.584 224.524 31.872 222.604 31.872V38.316C222.604 38.604 222.148 38.808 221.236 38.928C220.348 39.024 219.58 39.072 218.932 39.072ZM222.604 20.064V25.752H223.072C223.912 25.752 224.62 25.488 225.196 24.96C225.772 24.432 226.06 23.688 226.06 22.728C226.06 21.768 225.856 21.084 225.448 20.676C225.064 20.268 224.368 20.064 223.36 20.064H222.604ZM251.107 39.072C249.019 39.072 247.891 38.736 247.723 38.064L246.535 33.42H240.811L239.767 37.884C239.623 38.628 238.471 39 236.311 39C235.159 39 234.307 38.94 233.755 38.82C233.203 38.676 232.927 38.568 232.927 38.496L239.299 14.124C239.299 13.932 240.943 13.836 244.231 13.836C247.519 13.836 249.163 13.932 249.163 14.124L255.391 38.532C255.391 38.7 254.839 38.832 253.735 38.928C252.631 39.024 251.755 39.072 251.107 39.072ZM241.711 28.848H245.491L243.871 21.396H243.655L241.711 28.848ZM257.417 36.876V14.484C257.417 13.98 258.629 13.728 261.053 13.728C263.501 13.728 264.725 13.98 264.725 14.484V32.124H270.269C270.701 32.124 271.001 32.688 271.169 33.816C271.241 34.368 271.277 34.932 271.277 35.508C271.277 36.084 271.241 36.672 271.169 37.272C270.977 38.424 270.665 39 270.233 39H259.145C258.617 39 258.197 38.784 257.885 38.352C257.573 37.92 257.417 37.428 257.417 36.876Z"/>
</mask>
<path d="M230.776 15.996L229.407 17.4544L229.413 17.4596L229.419 17.4648L230.776 15.996ZM230.92 28.704L232.501 29.9291V29.9291L230.92 28.704ZM227.644 31.008L226.901 29.151H226.901L227.644 31.008ZM222.604 31.872V29.872H220.604V31.872H222.604ZM221.236 38.928L221.451 40.9164L221.474 40.9139L221.497 40.9109L221.236 38.928ZM222.604 20.064V18.064H220.604V20.064H222.604ZM222.604 25.752H220.604V27.752H222.604V25.752ZM225.196 24.96L226.547 26.4343L226.547 26.4343L225.196 24.96ZM225.448 20.676L223.992 22.0467L224.012 22.0688L224.034 22.0902L225.448 20.676ZM218.932 37.072C217.875 37.072 217.232 37.0107 216.904 36.9386C216.725 36.8993 216.798 36.8895 216.962 36.9973C217.056 37.0596 217.23 37.1935 217.384 37.4308C217.551 37.6878 217.656 38.0077 217.656 38.352H213.656C213.656 39.3746 214.286 40.0244 214.76 40.3367C215.196 40.6245 215.679 40.7647 216.046 40.8454C216.81 41.0133 217.805 41.072 218.932 41.072V37.072ZM217.656 38.352V15.024H213.656V38.352H217.656ZM217.656 15.024C217.656 14.8809 217.693 15.1468 217.413 15.4535C217.101 15.7952 216.758 15.8 216.772 15.8V11.8C216.042 11.8 215.141 12.0088 214.457 12.7585C213.805 13.4732 213.656 14.3511 213.656 15.024H217.656ZM216.772 15.8H223.108V11.8H216.772V15.8ZM223.108 15.8C226.467 15.8 228.397 16.5064 229.407 17.4544L232.145 14.5376C230.035 12.5576 226.853 11.8 223.108 11.8V15.8ZM229.419 17.4648C230.482 18.4476 231.152 19.9702 231.152 22.368H235.152C235.152 19.1978 234.238 16.4724 232.133 14.5272L229.419 17.4648ZM231.152 22.368C231.152 24.2033 230.571 25.889 229.339 27.4789L232.501 29.9291C234.245 27.679 235.152 25.1407 235.152 22.368H231.152ZM229.339 27.4789C228.866 28.0896 228.101 28.6713 226.901 29.151L228.387 32.865C230.067 32.1927 231.486 31.2384 232.501 29.9291L229.339 27.4789ZM226.901 29.151C225.746 29.613 224.328 29.872 222.604 29.872V33.872C224.72 33.872 226.662 33.555 228.387 32.865L226.901 29.151ZM220.604 31.872V38.316H224.604V31.872H220.604ZM220.604 38.316C220.604 37.8017 220.826 37.4 221.052 37.1567C221.245 36.9485 221.423 36.8694 221.445 36.8594C221.484 36.8418 221.372 36.8929 220.975 36.9451L221.497 40.9109C222.012 40.8431 222.584 40.7322 223.079 40.5106C223.463 40.3389 224.604 39.721 224.604 38.316H220.604ZM221.021 36.9396C220.18 37.0305 219.487 37.072 218.932 37.072V41.072C219.673 41.072 220.516 41.0175 221.451 40.9164L221.021 36.9396ZM220.604 20.064V25.752H224.604V20.064H220.604ZM222.604 27.752H223.072V23.752H222.604V27.752ZM223.072 27.752C224.371 27.752 225.573 27.3271 226.547 26.4343L223.845 23.4857C223.667 23.6489 223.453 23.752 223.072 23.752V27.752ZM226.547 26.4343C227.629 25.4433 228.06 24.1106 228.06 22.728H224.06C224.06 23.2654 223.915 23.4207 223.845 23.4857L226.547 26.4343ZM228.06 22.728C228.06 21.5707 227.829 20.2284 226.862 19.2618L224.034 22.0902C223.954 22.01 223.961 21.9685 223.99 22.0666C224.022 22.1718 224.06 22.3795 224.06 22.728H228.06ZM226.904 19.3053C225.933 18.2736 224.513 18.064 223.36 18.064V22.064C223.742 22.064 223.966 22.1041 224.075 22.1363C224.18 22.167 224.105 22.1675 223.992 22.0467L226.904 19.3053ZM223.36 18.064H222.604V22.064H223.36V18.064ZM247.723 38.064L249.663 37.5789L249.66 37.5683L247.723 38.064ZM246.535 33.42L248.472 32.9243L248.087 31.42H246.535V33.42ZM240.811 33.42V31.42H239.224L238.863 32.9645L240.811 33.42ZM239.767 37.884L237.819 37.4285L237.81 37.4661L237.803 37.504L239.767 37.884ZM233.755 38.82L233.25 40.7552L233.29 40.7656L233.33 40.7744L233.755 38.82ZM232.927 38.496L230.992 37.9901L230.927 38.2389V38.496H232.927ZM239.299 14.124L241.234 14.6299L241.299 14.3811V14.124H239.299ZM249.163 14.124H247.163V14.3751L247.225 14.6185L249.163 14.124ZM255.391 38.532H257.391V38.2809L257.329 38.0375L255.391 38.532ZM253.735 38.928L253.561 36.9355L253.735 38.928ZM241.711 28.848L239.775 28.3432L239.122 30.848H241.711V28.848ZM245.491 28.848V30.848H247.972L247.445 28.4231L245.491 28.848ZM243.871 21.396L245.825 20.9711L245.483 19.396H243.871V21.396ZM243.655 21.396V19.396H242.11L241.719 20.8912L243.655 21.396ZM251.107 37.072C250.131 37.072 249.554 36.9891 249.266 36.9032C249.127 36.8619 249.157 36.849 249.257 36.9263C249.38 37.0221 249.577 37.2364 249.663 37.5789L245.782 38.5491C246.133 39.9497 247.368 40.5115 248.124 40.7368C248.963 40.9869 249.994 41.072 251.107 41.072V37.072ZM249.66 37.5683L248.472 32.9243L244.597 33.9157L245.785 38.5597L249.66 37.5683ZM246.535 31.42H240.811V35.42H246.535V31.42ZM238.863 32.9645L237.819 37.4285L241.714 38.3395L242.758 33.8755L238.863 32.9645ZM237.803 37.504C237.864 37.1918 238.032 36.9711 238.165 36.8567C238.27 36.7659 238.312 36.7752 238.18 36.8178C237.9 36.9081 237.319 37 236.311 37V41C237.463 41 238.537 40.9059 239.409 40.6242C240.237 40.3571 241.45 39.7143 241.73 38.264L237.803 37.504ZM236.311 37C235.186 37 234.512 36.938 234.18 36.8656L233.33 40.7744C234.101 40.942 235.131 41 236.311 41V37ZM234.26 36.8848C234.14 36.8536 234.046 36.8271 233.975 36.8054C233.94 36.7947 233.912 36.7859 233.892 36.7791C233.883 36.7758 233.875 36.7732 233.87 36.7713C233.865 36.7694 233.862 36.7684 233.863 36.7685C233.863 36.7686 233.866 36.77 233.873 36.7729C233.88 36.7757 233.891 36.7807 233.906 36.7879C233.931 36.8 233.992 36.8302 234.071 36.8815C234.137 36.9244 234.298 37.0349 234.462 37.2278C234.619 37.4115 234.927 37.8478 234.927 38.496H230.927C230.927 39.1622 231.243 39.6176 231.417 39.8216C231.599 40.0348 231.786 40.1666 231.886 40.232C232.091 40.366 232.292 40.4494 232.405 40.4935C232.655 40.5914 232.954 40.678 233.25 40.7552L234.26 36.8848ZM234.862 39.0019L241.234 14.6299L237.364 13.6181L230.992 37.9901L234.862 39.0019ZM241.299 14.124C241.299 14.8992 240.868 15.3905 240.636 15.5936C240.411 15.7907 240.2 15.8801 240.133 15.9078C239.982 15.9693 239.89 15.9788 239.952 15.968C240.04 15.9525 240.255 15.9275 240.648 15.9046C241.41 15.8601 242.595 15.836 244.231 15.836V11.836C242.578 11.836 241.297 11.8599 240.415 11.9114C239.986 11.9365 239.584 11.9715 239.262 12.028C239.118 12.0532 238.872 12.1017 238.619 12.2052C238.5 12.2539 238.251 12.3651 238 12.5847C237.743 12.8102 237.299 13.3248 237.299 14.124H241.299ZM244.231 15.836C245.866 15.836 247.051 15.8601 247.813 15.9046C248.206 15.9275 248.421 15.9525 248.509 15.968C248.571 15.9788 248.479 15.9693 248.329 15.9078C248.261 15.8801 248.051 15.7907 247.826 15.5936C247.594 15.3905 247.163 14.8992 247.163 14.124H251.163C251.163 13.3248 250.719 12.8102 250.461 12.5847C250.211 12.3651 249.962 12.2539 249.842 12.2052C249.589 12.1017 249.343 12.0532 249.2 12.028C248.877 11.9715 248.475 11.9365 248.046 11.9114C247.164 11.8599 245.883 11.836 244.231 11.836V15.836ZM247.225 14.6185L253.453 39.0265L257.329 38.0375L251.101 13.6295L247.225 14.6185ZM253.391 38.532C253.391 37.9587 253.639 37.5311 253.854 37.2824C254.051 37.0555 254.25 36.9388 254.332 36.894C254.494 36.8058 254.592 36.7925 254.512 36.8118C254.384 36.8424 254.089 36.8896 253.561 36.9355L253.908 40.9205C254.484 40.8704 255.018 40.8036 255.442 40.7022C255.637 40.6555 255.942 40.5717 256.242 40.4085C256.399 40.3233 257.391 39.7746 257.391 38.532H253.391ZM253.561 36.9355C252.481 37.0295 251.671 37.072 251.107 37.072V41.072C251.839 41.072 252.781 41.0185 253.908 40.9205L253.561 36.9355ZM241.711 30.848H245.491V26.848H241.711V30.848ZM247.445 28.4231L245.825 20.9711L241.916 21.8209L243.536 29.2729L247.445 28.4231ZM243.871 19.396H243.655V23.396H243.871V19.396ZM241.719 20.8912L239.775 28.3432L243.646 29.3528L245.59 21.9008L241.719 20.8912ZM264.725 32.124H262.725V34.124H264.725V32.124ZM271.169 33.816L273.152 33.5573L273.149 33.5393L273.147 33.5214L271.169 33.816ZM271.169 37.272L273.141 37.6008L273.149 37.5557L273.154 37.5103L271.169 37.272ZM257.885 38.352L259.506 37.181L257.885 38.352ZM259.417 36.876V14.484H255.417V36.876H259.417ZM259.417 14.484C259.417 15.3139 258.869 15.7465 258.702 15.8502C258.559 15.9397 258.517 15.92 258.733 15.8751C259.132 15.7922 259.874 15.728 261.053 15.728V11.728C259.807 11.728 258.732 11.7898 257.918 11.9589C257.528 12.04 257.032 12.1778 256.585 12.4563C256.116 12.749 255.417 13.4021 255.417 14.484H259.417ZM261.053 15.728C262.244 15.728 262.997 15.7922 263.403 15.8759C263.623 15.9212 263.585 15.942 263.444 15.8548C263.283 15.7555 262.725 15.3235 262.725 14.484H266.725C266.725 13.3925 266.013 12.74 265.546 12.4517C265.099 12.1755 264.602 12.0388 264.21 11.9581C263.393 11.7898 262.309 11.728 261.053 11.728V15.728ZM262.725 14.484V32.124H266.725V14.484H262.725ZM264.725 34.124H270.269V30.124H264.725V34.124ZM270.269 34.124C269.903 34.124 269.58 33.9931 269.347 33.814C269.144 33.6577 269.063 33.5064 269.052 33.4862C269.038 33.4604 269.057 33.49 269.09 33.6089C269.122 33.7229 269.157 33.8867 269.19 34.1106L273.147 33.5214C273.051 32.88 272.893 32.1905 272.583 31.6078C272.271 31.02 271.548 30.124 270.269 30.124V34.124ZM269.185 34.0747C269.246 34.538 269.277 35.0155 269.277 35.508H273.277C273.277 34.8485 273.235 34.198 273.152 33.5573L269.185 34.0747ZM269.277 35.508C269.277 36.0006 269.246 36.5089 269.183 37.0337L273.154 37.5103C273.235 36.8351 273.277 36.1674 273.277 35.508H269.277ZM269.196 36.9432C269.157 37.1747 269.118 37.3464 269.082 37.468C269.045 37.5945 269.023 37.6327 269.032 37.6154C269.038 37.6046 269.114 37.4617 269.31 37.3106C269.534 37.1369 269.857 37 270.233 37V41C271.521 41 272.241 40.089 272.549 39.5206C272.863 38.942 273.033 38.2523 273.141 37.6008L269.196 36.9432ZM270.233 37H259.145V41H270.233V37ZM259.145 37C259.161 37 259.243 37.0055 259.348 37.0594C259.453 37.113 259.501 37.1747 259.506 37.181L256.263 39.523C256.947 40.4699 257.967 41 259.145 41V37ZM259.506 37.181C259.449 37.1027 259.417 37.0237 259.417 36.876H255.417C255.417 37.8323 255.696 38.7373 256.263 39.523L259.506 37.181Z" fill="#802E00" mask="url(#path-3-outside-1_61_1070)"/>
</svg>
